<?xml version="1.0" encoding="utf-8"?>
<!-- Generator: Adobe Illustrator 28.0.0, SVG Export Plug-In . SVG Version: 6.00 Build 0)  -->
<svg version="1.1" id="Layer_1" xmlns="http://www.w3.org/2000/svg" xmlns:xlink="http://www.w3.org/1999/xlink" x="0px" y="0px"
	 viewBox="0 0 864 864" style="fill: #ffb300;" xml:space="preserve">
<g>
	<path d="M820.5,272.2c22.7,96.9,8.8,188-30.5,276.1c-61.1,137-158.2,226.4-287.8,273.4c-8.7,3.2-12.3,8-13.1,17.2
		c-0.6,6.1-1.6,12.2-0.4,19.1c-9.4-3.4-17.9-6.7-24.6-13.9c-7.3-7.8-15.2-8.5-25-6.9c-121.9,20.3-231.7-7.6-322.9-104.3
		c-46-48.8-71.2-110.5-80.8-179.9C23,464.3,39.7,380.4,73.6,300.8c39.6-93,97.2-169.4,177.3-222.9c13.8-9.2,13.9-9.2,2.7-22.7
		c-1.2-1.4-2.3-2.9-4.2-5.3c8.4,1.4,14.9,4.5,21.3,8.4c4.4,2.7,8.9,5,13.8,1.8c19-12.3,40.2-18.4,60.8-26.1c4.8-1.8,5.9-3.6,2.4-8.6
		c7.3,5,14.3,3.4,21.4,1.4C424.2,11.3,480.1,4.1,536.9,7.1c48.5,2.5,96.7,9.3,141.8,31.2c54,26.2,93.3,68.9,112.4,132.2
		c5.7,19.1,8.4,38.9,6.9,59.2c-0.4,5.7,2.3,11.7-2.1,16.8c-0.9,1.1,0.1,2.8,0.9,4.1c2.5,4.1-0.3,7.6-0.6,11.3
		c-0.7,9-5.2,16.4-5.9,25.1c0,0.5,0.1,1,0.2,1.5c0.2,2.6-0.1,6.2-1.7,6.9c-10.3,4.6-4.9,20.6-15.1,25c-1.5,0.7-4,0.6-3.9,3.2
		c0.3,7.5-4,11.2-9,14.2c-2.6,1.6-2.9,4.2-3.4,6.8c-5.5,25.3-19.7,40.3-42.9,44.3c-4.5,0.8-8.1,2.6-11.8,5.9
		c-16.8,14.8-35.4,25.4-56.9,28.8c-5.8,0.9-11.6,0.3-17.2-1.4c-12.9-4.1-19.9-14.8-19.6-29.7c0.4-20.9,10.5-35.1,28.7-39.9
		c11.9-3.2,23.8-2.6,35.5,1.7c3.4,1.3,6.6,3,9.4,5.4c3.1,2.8,7.5,6.1,6.5,10.3c-0.8,3.5-5.8,0.8-8.9,0.9c-13,0.5-25.6,3.2-38,7.3
		c-2.3,0.7-4.6,1.4-7.6,2.2c0.5-4.1,4.1-5.8,4.2-9.3c-7,0.1-12.7,5.9-13.7,13.9c-1,8,3,15.2,10,18c5.7,2.2,11.5,1.8,17.1,0
		c16-5.2,30.3-14,43.7-24.8c2.6-2.1,4.8-4.8,5.1-8.4c2-22.9,16.2-32.7,33.6-39.1c2.1-0.8,4.2-1.5,6.4-2c3.3-0.8,5.5-2.2,5.9-6.6
		c0.7-7,8.3-7.7,10.4-11.7c2.4-4.7,1.6-11.6,7.6-14c2.4-1,3-2.4,2.2-5.1c-0.7-2.2-0.4-5,0.8-6.4c5.2-6.2,7.5-13.8,10.8-21.1
		c1.8-3.9,1-7.4,2.2-10.8c12.1-33.1,4.1-64.7-7.1-95.4c-20.1-54.9-58-89.4-106.5-110.7c-34-14.9-69.7-21.7-105.9-24.9
		c-56.8-5-113.3-1.9-169.1,11.6c-6.7,1.6-13.4,3.6-20,5.5c-0.8,0.2-1.5,0.6-3,1.3c12.2,11.7,22.7,24.6,36,33.8
		c24.6,17,45.3,11.6,60.6-15.7c1-1.9,2.1-3.7,4.1-7.3c0.7,8.6,1.3,15.5,1.7,22.3c0.4,7.7,1.3,15.3,3.1,22.7
		c5.1,20.7,22.2,29,39.2,18.7c15.4-9.3,31.7-10.4,48.5-7.5c3.9,0.7,4.7,2.2,3.2,6.4c-2.2,5.9-7.2,12.8-5,17.8
		c2.1,4.7,9.4,6.6,14.4,9.8c19.1,12.3,37.7,25.4,53,43.4c3.8,4.5,7.9,6.1,13.7,5.2c16.5-2.5,29.2,9.5,30.3,28
		c1.3,20.5-5,39-12.9,56.8c-10.8,24.2-24.5,46.5-38.1,68.8c-10.4,17-20.4,34.2-30.8,51.1c-2.4,3.9-2.4,6.7,0.3,10.4
		c5.7,7.6,12.2,14.4,19,20.8c8.6,8.2,17.5,16.1,25,25.7c9.5,12.1,15.6,25.8,16.4,42c0.9,17.5-5.7,28.2-20.9,33.1
		c-8,2.6-16.1,3.7-24.4,3.2c-16.2-0.9-32.2-2.8-48.5-2.5c-19.2,0.3-37.6-7.2-54.9-16.5c-17.6-9.5-36.9-10.6-55.4-15.2
		c-2.1-0.5-3.9,0.8-5.7,1.6c-14,6.4-28.4,11.4-43.2,14.8c-2.6,0.6-5,1.4-6.6,4.3c-6.3,11.5-13.8,21.9-22.5,31.2
		c-4.9,5.2-4.3,9.4-0.4,15.1c15.7,22.9,34.7,29.4,58.7,18.6c9.7-4.3,18.8-10,28.2-15.1c26.5-14.7,54-25.3,83.9-26.8
		c16.1-0.8,31.8,1.2,47.8,7.1c-3,4.3-5.6,7.9-8.2,11.6c-15.8,23.3-26.9,48.9-29.4,78.4c-1.1,13.3-6.3,24-14.5,33.3
		c-2.5,2.8-4.9,5.7-7.6,8.3c-6.4,6.4-8.5,13.5-5.9,23.2c4.6,17.1,0.3,33.8-3.9,50.3c-4,15.7-10.3,30.5-15.7,45.7
		c-1.3,3.7-2.5,7.3-4.6,13.2c104.3-38.9,189.8-103.1,250.1-204.6C807.4,504.6,835.5,394.2,820.5,272.2z M348,465.3
		c0.6,1.7-5,2.8-0.6,4.4c5.4,2,11.1,3.5,16.4-1.2c-4.6-6.6-10.3-4.6-15.9-3c3.8-5.5,3.2-7.4-3.1-8.5c-8.8-1.6-17.4,0.7-26,2.2
		c4.9-4,11.3-3.9,16.9-7.3c-4.1-4.9-9.1-3.8-13.8-3.9c-5-0.2-9.8,2.4-16.6,0.8c7.3-1.8,13-3.1,19.8-4.8
		c-11.4-11.1-24.2-4.2-36.8-6.8c8.3-2.6,15.8-2.9,23.2-3.8c2.9-0.3,4.5-1,4.3-4.7c-0.2-4-2.7-3.3-4.8-3.1c-5.2,0.4-10.4,1-15.7,1.6
		c5.9-2.8,11.9-4.5,18-5.7c3-0.6,3.4-2.5,3.4-5.2c-0.1-3.3-2.3-2.5-3.9-2.5c-6,0.1-12,0.9-18,0.7c-6.3-0.2-8.1,4.1-8.7,9.6
		c-1.6,15.3-4.1,16.3,11.1,24.4c7.1,3.8,13.9,8.3,21.5,10.7C328.1,463.1,337.1,469.6,348,465.3z M222.1,159.7
		c3.8,14.9,0.7,21.4-12.7,26.8c-2.5,1-5,1.8-7.6,2.7c-2.3,0.7-4.7,0.9-7.5,3.8c11.7-1.1,21-4.8,28.2-13.7c5.2-6.4,4.9-12.4-0.5-19.4
		c0.3-3-3.2-3.8-3.1-7.1c10.5,3.3,19.6,9.5,29,14.8c2.4,1.3,4.6,3,7.1,4c4,1.5,7.8-1.5,8.9-4.5c1.5-4-3.4-3.2-5.3-4
		c-11.4-4.6-23.1-8.6-35-11.4c-4.2-1-8.5-3-14.9-1.4C214.9,152.6,218,156.9,222.1,159.7z M503.7,178.9c-10.6,6.5-18.3,15.6-21,29.1
		c-2.1,10.7,1.4,21.5,8.6,27.1c7.6,5.8,17,5.7,25.6-0.8c10.2-7.8,18.7-17.5,25.1-29.4c0.9-1.6,2.8-3.5,1.3-5.3
		c-4.1-5.2-4.5-11.7-5.8-17.9c-0.8-3.6-3.3-4.4-5.8-5.3c-9.4-3.2-18.4-1.9-27.3,2.3c0.8-2.9,3.2-3.2,5.2-4
		c6.4-2.5,12.9-3.5,19.6-3.3c3.1,0.1,6.9,1.7,6.4-4.9c-0.4-5.3-0.1-10.1-7-9.1c-4.4,0.6-8.9,0.4-13.3,0.9
		c-29.2,3.3-49.6,33.3-44,64.6c1.3,7.2,4.4,12.8,11.7,15.6c-1.6-4.9-3.1-8.5-4.1-12.3C474.1,206.7,487.1,181.8,503.7,178.9z
		 M631.2,220.2L631,220c0.2,3-2.3,2.6-3.6,3.3c-42.3,21.9-83.7,45.9-123.1,73.8c-34.2,24.2-66.8,50.8-96.6,81.5
		c-5.7,5.9-11.5,11.7-15.1,19.6c-3,6.7-1.6,11.4,4.5,14.5c2.4,1.2,5,2,7.6,2.6c12.8,2.8,25.7,1.2,38.6,1.7c3.8,0.2,6.1-1.4,8.3-4.7
		c7.8-11.5,14.5-23.7,21.3-35.9c13.2-24.1,29.5-45.2,48.7-63.6c24.5-23.5,51.4-43.3,78.6-62.5c6-4.2,12.5-7.5,19.4-9.7
		c7.8-2.4,15.8-4.2,22.4-2.5c-4.3,19.7-11,38-23,53.1c3.4-9.1,7.3-18,9.4-27.6c1.5-6.6,6-15.8,2-19.4c-3.5-3.3-11.2,3.1-16.9,5.7
		c-5.4,2.5-8.1,6.7-9.6,13c-5.7,23.9-15.7,45.7-28.9,65.5c-3.2,4.9-6.9,9.4-11.1,15.1c-1.3-11.2-2.3-20.8-9.2-28
		c-0.6,0.8-1.2,1.3-1.4,1.9c-5,20.4-14.5,38.2-24.9,55.5c-3.8,6.4-7.6,12.8-11.4,19.2c-1.5,2.6-1.4,4.2,1.8,5.2
		c22.2,7.2,32.7,27,41.2,49c-21.9-22.5-43.1-46.2-77.8-42.5c26.2,29.8,47.9,64.6,89.2,69.3c-1.1-5.8-4.3-10.2-4.1-16.6
		c9.2,9.7,17,19.7,26.8,27.1c1.5,1.1,3,3.7,5.1,2c1.7-1.4,1.9-4,1.4-6.2c-0.8-4.1-2-8.2-3.2-12.6c5.3,1.6,8.4,6.6,13.5,9.2
		c-1.2-6.1-5.1-10-5.7-15.9c8.5,5.5,12.1,14.3,15.8,22.9c1.7-1,0.5-3.9,2.9-3.7c2.9,8.8,1.5,14.8-4.8,20c-4.5,3.8-9.8,5.9-15.4,6.6
		c-24.6,3-45.4-6.7-63.7-24.1c-15.6-14.8-30.3-30.6-44.2-47.3c-7.4-9-15.7-16.8-26.5-20.4c-3.8-1.3-6.7-1.1-8.9,3.5
		c-2.5,5-5.9,9.6-10.8,11.7c-3.9,1.6-4.7,4.6-4.9,8.6c-0.6,11.5,3.9,20.6,11,28.4c18.3,20,40.4,32.8,64.8,41.1
		c10.1,3.4,20.4,6,31,6.9c0-3.5-4-2.7-4.1-5.8c10.1,2.9,20.1,6.2,30.2,8.5c14.6,3.3,29.4,6,44.2,1c12.2-4.1,17.5-13.9,15.6-27.8
		c-1.5-11.1-6.1-20.6-11.5-29.7c-10.8-18.3-24.4-33.9-38.9-48.7c-8.7-8.8-18.8-13.6-30.2-16c-7.1-1.5-14.3-0.8-22.9-1.2
		c1.9-1.4,2.5-2,3.2-2.4c11-5.5,22.4-5.9,33.9-2.6c3.9,1.1,5.1,0.2,5.4-4.2c0.3-5.2,0.9-10.4,2-15.4c3.3-14.9,10.1-27.7,19.8-38.5
		c-4.3,15.3-11.9,29.4-13.5,47.2c1.7-1.8,2.4-2.4,2.9-3.1c24.4-35.7,45.8-73.6,66.4-112.1c5.7-10.7,9-22.7,9.6-35.2
		c0.8-16.8-7.1-25.3-22.3-24.5c-11.6,0.7-22.1,5-32.4,10.5c-17.3,9.1-33.7,20-50.2,30.7c-1.8,1.1-3.6,2.1-5.5,3.1
		c19-23.5,42.8-38.8,68-51.9c-15-0.9-28.8,4.1-44,10.4c10.1-14.3,22.8-18.5,37.6-20.5c-15.9-20.2-34.5-34.1-55.4-44.4
		c-2-1-3-0.2-3.4,1.8c-2.3,10.6-4.4,21.3-0.9,32.1c1.9,5.7,5.1,9,11.1,7.8c3.4-0.7,6.8-0.8,11.2-1.4c-2,4.1-4.3,6-6.8,7.4
		c-8.4,4.6-14.4,12.1-20.1,20.2c-9,13-19.6,24.3-31.2,34.4c-9,7.8-18.8,14.1-30.2,16.5c-19.8,4-34.6-8.8-34.2-29.8
		c3,1.2,3.9,4.6,6.1,6.6c2,1.9,3.7,4.3,6.8,5c-19.1-34.2-1-56.1,20.4-78.7c-5.6,2.4-9.6,4.2-14.5,6.3c0.9-1.5,1.1-2.2,1.5-2.6
		c16.3-14.6,34.2-25.1,55.7-24.9c7,0,4.8-6,5.5-9.4c0.9-4.5-3.2-2.8-5.1-2.9c-13.4-0.7-26,2.8-38,9.4c-3.9,2.1-7.6,4.7-12.4,7.6
		c3-8.5,9.4-12.9,12.8-20.4c-12.8-2-25-2.6-37.1-3.2c-46.4-2.2-92,2.8-135.9,20.1c-73.2,28.9-127.8,81.2-157.8,161.9
		c-24.5,66.1-21.4,133.6-2.3,200.5c12.3,43.3,35,78.6,69.3,104.1c2.1,1.5,4,3.7,7,3.9c0.3-6.2-3.7-7.9-7.2-9.7
		c-6.4-3.3-10.2-8.9-12.9-15.6c5.2,3.5,10.1,7.5,15,11.3c1.2,0.9,3.9,2.1,4,1.9c2.9-5.9,5.4-0.6,7.7,0.5c6.6,3.5,13.1,7.3,19.6,11.1
		c5.7,3.4,12,6.7,15.2,12.9c4.6,8.9,12.1,13.4,19.2,18.8c7.9,6,15.7,12.2,23.5,18.3c3.8,3,7.4,6,11.2,9c-0.3,0.5-0.6,0.9-0.8,1.4
		c-15.1-9.3-30.2-18.7-46.9-29c1.7,5.6,4.5,6.9,7.1,8.5c19.3,11.7,38.7,23.3,57.9,35.2c8.7,5.4,17.5,11.1,23.7,20.1
		c4.2,6.1,9.2,6.1,14.8,3.8c4.5-1.9,7.9-5.4,11-9.4c24.6-31.6,36.5-68.5,36.7-110.2c0-4.9-1.4-5.2-4.9-3.9c-11,4.1-22.4,6.4-34,6.6
		c-19.2,0.5-38-1.5-51.8-19.2c-2-2.5-3.2-5-6.9-2.6c-4,2.5-2.1,5.3-1.1,8.2c5.7,15.8,16.2,26.9,28.8,36c0.9,0.7,1.9,1.3,2.8,2
		c0.9,0.7,2.3,1,2.4,3.6c-17.7-7.9-33.6-17.3-41.1-37.9c-1.4-3.9-2.9-4.6-6.3-2.9c-7.2,3.6-14.2,7.8-23.5,9.4
		c8.6-12.6,12.8-25.9,16.7-40.4c-30.1,7.9-59.4,11.7-88.8-0.3c16-5.5,30.1-14.6,43.2-25.8c1.9-1.6,5-3,4.4-5.9
		c-0.5-2.6-3.7-1.9-5.8-2.3c-17-3.6-34-7.3-50.1-14.8c-3-1.4-6.4-2.1-8.9-6c1.5,0.2,2.4,0.3,3.2,0.5c20.7,7.1,42,10.6,63.4,13.4
		c3.9,0.5,7.7,0.9,11.4-3.9c-16.9-2.2-33.2-3.2-48.2-10.4c5.1,0.6,10.1,1.7,15,2.8c17.1,3.9,34.1,6,51.4,0.4
		c10.3-3.3,21-3.1,31.8-1.8c13.3,1.6,26.6,3,39.8-0.9c6.8-2,13.6-4.1,19.9-10.2c-3.3-0.6-5.6-1.2-7.9-1.5
		c-29.4-3.8-58.2-10.8-86.1-22.3c-4.2-1.7-7.9-1.9-12.2-0.3c-18.4,6.8-37.1,11.9-56.8,10.7c-9.4-0.6-9.4-0.4-9.5-11.1
		c0-2-0.3-3.9-0.4-5.9c-1.4-17-8-32.3-13.3-48c-6.1-18.1-7.5-36.4-3.7-55.4c2.7-13.2,6.7-26,7-40.1c-19.3,20.9-38,42.3-50.1,69.6
		c8.5-28,21.3-53.4,40.4-73.8c10.9-11.6,17.8-23.5,18.6-40.7c1-20,2.5-20.3,19-10.7c5.3,3.1,10,3,14.8-1c3.6-2.9,7.4-5.5,11.4-7.6
		c24.8-13.1,50.1-24.2,77.9-26.7c6.8-0.6,13.1-2.7,16.3-10.7c3.7-9.4,10.4-16,17.5-22c16.4-13.7,35.1-22.1,54.2-29.6
		c1.2-0.5,2.4-2.1,4,0c-16,9.8-32.3,18.9-47,30.9c-9.2,7.5-18.4,15.3-24.1,26.4c-4.2,8.2-9.9,11.9-18,13
		c-28.5,3.6-54.6,15-79.5,30.4c-2.1,1.3-4.5,2.1-5.8,4.6c0.3,0.5,0.5,1.1,0.8,1.2c24,12.2,46,28,67.6,44.6c3,2.3,4.7,1.8,7.3-0.8
		c12.6-12.9,25.2-25.8,38.1-38.3c9.1-8.8,18.8-17,28.2-25.4c0.4,0.5,0.9,1.1,1.3,1.6c-3.1,3.3-6.4,6.5-9.4,9.9
		c-41.4,46.1-68.2,100.2-73.5,166.2c-0.4,5.4,0.6,8.7,4.4,11.9c19.2,16.7,41.1,27.4,63.8,36.2c3,1.2,5.9,3.3,10.3,2.5
		c-10.1-8.6-18.7-17.9-26-28.5c-4.1-6-7.5-12.5-5.1-20.5c1.1-3.6-0.6-4.3-3-4.8c-4.6-0.9-9.2-1.5-13.8-2.7
		c-10.5-2.6-11.8-5.1-10.8-17c1.9-22.6,8.7-43.3,18.1-63.2c16.8-35.6,41.3-64.2,67.5-91.2c6.4-6.6,6.4-7.1-1.3-12.4
		c-9.3-6.4-20-8-30.5-10.1c-5.5-1.1-5.8-2.6-2.4-7.1c11.9-15.9,27.3-25.9,44.2-33.5c3.4-1.6,6.7-4,12.3-3.8
		c-18.4,10-36.4,17.9-47.9,36.2c0.7,0.5,1,1,1.4,1.1c1.7,0.4,3.5,0.6,5.3,0.9c12.4,2.2,22.7,8.1,30,19.9c1.9,3,1.9,4.8-1,7.2
		c-45.2,37.9-71.6,89.5-86.7,149.2c-0.7,2.6-1.1,5.3-1.2,8c-0.1,2.1-0.7,4.9,1.5,5.9c1.9,0.8,3.1-1.5,4.4-2.8
		c5.5-5.7,10-12.9,16.8-16.8c11.5-6.6,17.4-16.2,15.4-31.1c-1.1-8.2,2.3-14.4,9-18c6.5-3.5,11.6-8.9,17-14
		c14.2-13.4,41.8-23.1,56.9-20.3c-1.9,0.8-3.3,1.4-4.7,1.9c-15.6,5.8-31.3,11.2-46.1,19.4c-9.3,5.2-13.9,14.7-12.8,24.6
		c0.6,5.7,3.1,7.9,8.2,5.8c4.6-2,8.6-5.2,12.4-8.6c19-17.2,39.1-32.6,59.5-47.7C534.6,267.8,581.1,240.3,631.2,220.2z M110.7,337.2
		c3.9-23.5,9-45.1,19.9-64.4c11.7-20.7,28.5-32.8,50-37.1c6.1-1.2,14.1-9.2,14.8-15.2c0.9-8.6-4.7-12.4-10.3-15.4
		c-4.2-2.2-8.7-3.7-13.2-5.1c-4.5-1.4-9-2.4-13.6-3.6c11.5-4.7,23.1-8,34.6-11.3c6.2-1.8,12.5-3.4,18.1-7.3c8.2-5.7,8.4-14,0.2-20
		c-5.3-3.9-11.5-5.2-17.2-7.8c-5.2-2.4-8.7-1.2-12.7,3.3c-73.4,82.5-122.4,179-135.7,295.6C39.8,499.5,42,549.7,56,598.6
		c25,86.7,76.5,148.5,148,190c64.7,37.6,134.3,48,206.4,40.6c9.4-1,18.8-2.4,27.6-3.6c-9.1-10.8-18-21.5-27.1-31.9
		c-15.4-17.5-28.7-36.5-34.3-60.8c-1.4-6.2-4.4-10.4-8.7-14.3c-23.1-20.9-48.9-36.7-75.5-51.3c-12.8-7-13-7-14.6,9.3
		c-0.5,5.3-1.9,5.1-5.1,2.4c-9.9-8.2-18.4-17.8-24.2-30.2c-2.5-5.3-4.8-10.8-9.4-15.3c-4.9,12.8,2.4,23.1,4.4,35
		c-12.9-6.6-24-13.6-33-24.2c-6.8-8-12.8-17.7-11.9-28.2c1.5-17.5-6.2-28.6-15.9-39.7c-3.4-3.9-6.1-8.5-9-12.9
		c-3.6-5.5-7.1-11.2-10.8-17.1c-5.9,8.7-9.2,17.9-9.4,29.9c-10.4-11.3-16.8-23.5-21.9-36.6c-14.3-37.3-19.3-75.8-11.2-117.1
		c-5.9,7.8-7.3,16.6-11.8,25.8c-6.7-34.9-4-66.8,9.4-97.5c-2.8,3.8-5.6,7.5-8.4,11.3c3.4-13.7,8.3-26.2,16.6-38.6
		C119.4,326.7,116.6,332.9,110.7,337.2z M419.8,763.2c-11-8.8-18.6-20.3-24.2-33.6c-0.8-1.9-0.8-4.7-3.1-5.3
		c-1.9-0.5-4.3-0.7-5.8,0.9c-1.9,2,0,4.2,0.8,6c17,43.5,45,76.6,78.9,104.3c3.1,2.6,6.3,5,9.5,7.6c-6.1-8.2-12.7-15.8-19.1-23.4
		c-6.4-7.6-12.7-15.3-16.6-25.3c9.7,7.4,19.5,14.8,29.2,22.1c-14.4-18.6-30.1-35.3-41.9-55.9c8.5,4.3,16.1,10.3,26.7,14.6
		c-12.6-17-26.2-30.4-35.1-49.7c9,3.1,15.9,8.2,25.2,8.8c-8.3-14.4-18.8-25.9-23.8-42.8c-5,8.7-7.7,17.8-13.4,22.3
		c-8.5,6.8-5.7,12.6-2.3,19.7c2.1,4.4,4.2,8.7,6.4,13C414.1,752.3,416.9,757.8,419.8,763.2z M455.9,593.5c6.5-1,13-2.2,19.5-2.9
		c23.5-2.6,47-2.2,70.6-0.4c2.9,0.2,5,0,6.4-3.5c4.4-11.1,10.2-21.4,17.2-30.7c0.9-1.3,2.5-2.8,1.3-4.5c-0.6-0.9-2.4-0.9-3.6-1
		c-38.5-2.4-75.2,5.1-109.5,25.3c-1,0.6-2,1.1-2.9,1.8c-0.7,0.6-2,0.8-1.8,2.8c24.7-8.3,49.3-15.8,75.5-12.1
		C502.8,570.8,478.7,579.6,455.9,593.5z M193.2,142.9c7.8-1.4,15.4-2.5,22.9-4c14.8-3,29.8-5.8,43-14.6c12.9-8.5,16.7-20.5,12.4-36
		c-1.5-5.4-3.2-6.3-7.8-3.4c-23.8,14.7-45.9,31.8-66.5,51.6C195.6,138,193.5,139.3,193.2,142.9z M293.1,68.4c11.3,7.5,22,12,33,15.5
		c6,1.9,12.2,2.7,18.4,1.7c7.7-1.3,13-6,15.3-14.4c2.3-8.4,0.9-16.6-2-24.5c-0.9-2.5-2.4-3.2-4.8-2.4
		C333.3,51.1,313.8,59.1,293.1,68.4z M319.9,312.2c-16.2-16.1-53.4-39.9-75.2-48.1c-11.5-4.3-11.5-4.3-13.6,9.2
		c-0.2,1.5-0.5,2.9-0.8,4.4c-1,4.1,0.7,5.7,4.2,6.3c26,4.7,49.7,16.4,72.9,29.5c3.1,1.7,6.2,3.4,9.9,5.4c-1.1-4.2-5-5-5.4-8.8
		C314.9,309.2,316.8,313.4,319.9,312.2z M465.3,489.8c-5.2-4.6-10.5-9-15.6-13.8c-9-8.6-15.2-19.1-16.7-32.7
		c-1.2-10.3-12.3-16.1-23.1-12.5c-6.2,2-8.6,10.8-5.5,20.2c2.9,9,8.3,15.6,15.6,20.5C434,480.7,449.5,485.8,465.3,489.8z M682,366.1
		c-13.7-13.4-51.8-11.7-64.6,10.1c-7.8,13.3-3.7,29.4,9.1,36.3c7.2,3.9,14.8,4.7,22.7,3.6c19.2-2.8,34.9-13.9,50.1-26.1
		c0.9-0.7,1.6-1.7,2.3-2.7c0.7-1,1.3-2.2,0.6-3.4c-0.9-1.7-2.3-1.1-3.5-0.5c-1.6,0.9-3.1,1.9-4.5,3c-9.8,7.8-20.3,14.1-31.5,19.1
		c-7.9,3.5-16,5.9-24.6,5.2c-10.6-0.9-18.3-8.5-19.7-19.5c-1.4-10.7,3.4-19.1,13.4-23.6c6.6-3,13.5-3.9,21.3-2.7
		c-1.5,2.1-2.6,3.5-4.6,6.3C660,366.6,670.4,366.2,682,366.1z M321.2,133.7c-15.2-24.3-30.7-47.5-51.8-65.2c1,3.4,2.5,6.3,3.8,9.3
		c12.9,28.1,4,51.7-22.9,61c-8.2,2.8-16.6,4-24.9,5.7c16.1,3.2,30.5-1.6,43.1-12.9c15.3-13.6,16-31.2,9.8-50.6
		c2.3,2.2,3.9,4.4,5.4,6.8c8.1,12.7,14.7,26.5,21.6,40C310.4,137.9,310.4,137.9,321.2,133.7z M174.5,249.1
		c-24.7,2.2-48.1,31.9-53.3,66.1c9-7.5,18.1-13.4,29.4-16.6c-6.3-3.6-12.4-1.3-18.7-2.6c7.3-7.6,16-10.9,25.3-16.5
		c-5-0.5-8.2-0.8-12.2-1.2c7-6.7,15.3-8.6,23.4-14.1c-6.2,0-10.9,0-16.5,0C158.7,257.6,166.1,254.2,174.5,249.1z M367.1,63.8
		c1.6,3,2.9,5.2,4,7.5c5.8,12.3,9.9,25.4,12.9,38.9c1.5,7,4.4,9,10.5,8.2c4.8-0.6,5.1-1.9,2.7-6.2C388,95.8,379,79.3,369.9,62.9
		c-1.2-2.2-2.7-4.1-4.7-7.2c-0.2,2.5-0.3,3.5-0.3,4.4c-0.3,20.3-8.9,29.8-27.2,30c-15,0.1-28.8-5.1-42.5-11.1
		c-1.9-0.8-3.5-3-6.6-1.4c14.2,10.9,29.4,15.8,46.1,15.6C354,92.9,362.7,85.3,367.1,63.8z M248.1,443c6.9,1.2,12.9,2.2,18.9,3.2
		c-7.8,3.5-15.7,4.8-22.8,9.2c8.4,0,16.8,0,25.1,0c-7.5,3.5-15.7,3.9-22.7,8.5c13.7-1.1,27.6-1,41.7-6.8c-2.9-2.4-5-4.1-7.1-5.9
		c-2.4-2.1-5-3.7-5-8c0-10.4-0.2-10.4-9.8-10.1c-1.9,0.1-3.7,0.3-7.4,0.5c4,2.1,6.3,3.4,9.3,4.9C261.7,441.9,254.8,439.1,248.1,443z
		 M748.5,339.4c-0.7-1.4,1.2-6.6-2.9-4.4c-8.9,4.9-17.9,10-24.5,18.7c-2.3,3.1-4,6.8-1.6,10.8c2.2,3.7,5.7,3.4,9,2.7
		C741.1,364.6,747.8,355.3,748.5,339.4z M128,478.3c4.3-6.5,6.6-12,11.2-16.8c-2.2,14.3-5.4,27.5-4,41.1c2.1-6.1,3.7-12.1,5.3-18.2
		c1.6-5.9,3.9-12,2.5-18.1c-3.2-14.1-2-28.9-5.9-43.7C130,439.9,128.5,457.9,128,478.3z M528,648.9c-29.4-8.1-58.4-6.1-86.7,6.3
		C470,649.8,499.1,652.5,528,648.9z M460.3,77.4c-32.4,24.4-57.3,3.7-82.8-13.9c22,21.2,45.6,36.3,76.9,23.1
		c-3.7,11.1-10.5,18.9-15.5,28.2c2.7-1,6,0.7,7.6-3.2C451.3,100.4,456.5,89.6,460.3,77.4z M298.5,387.6c8.3-1.4,15.2-2.4,22-3.7
		c2.5-0.4,2.8-3,3-5.1c0.2-3.2-2.1-2.5-3.7-2.5c-3.5,0-6.9,0.3-10.4,0.5c2.8-2,5.7-3.1,8.6-3.2c6.7-0.2,10.1-3.6,10.2-11.9
		c-6.2,1.6-13.6-1.2-18.1,4.3C305.4,371.8,302.7,379.5,298.5,387.6z M293.5,549.9c26.3-2.6,48.8-14.4,67.6-35.2c0.9-0.9,2.5-2,1-3.6
		c-1.7-1.9-3.2-0.5-4.6,0.9c-7.3,7.7-15.4,14.1-24.1,19.6C320.8,539.7,307.2,544.9,293.5,549.9z M326,571.5
		c15.5-8.4,30.7-17.3,42.5-31.7c1.4-1.8,4.5-4.1,2-6.7c-2-2-4.7,0.3-6.4,2.2c-7.5,8-15.4,15.6-23.5,22.9
		C335.8,562.7,330.9,567.1,326,571.5z M145.8,492.5c-5.2,16.9-6.8,32.7-3.4,48.8c0.4-8.4,1.1-17,5-24.3
		C151.7,508.8,150.4,501.5,145.8,492.5z M292.3,402.4c9.5-2.4,17.7-4.3,25.8-6.5c2-0.5,2.1-2.9,2.4-4.9c0.2-1.4-0.3-2.5-1.6-2.6
		c-6.7-0.6-13.5-0.7-19.8,1.6C295,391.6,294.9,397.1,292.3,402.4z M289.3,413.8c8.6-1.9,16.6-4.4,25-4.8c3.3-0.2,3.8-2.8,3.8-5.7
		c0-3.6-2.6-2.9-4.3-2.6c-4.8,0.6-9.6,2.2-14.4,2.3C293.3,403.2,289.9,405.9,289.3,413.8z M245.3,611.4c1.8,17.5,5.5,33.1,16.2,45.6
		c-4.4-13.1-7.1-26.6-10.1-40.1C250.8,614,248.8,612.7,245.3,611.4z M137.9,350.9c-12.6,9.4-19.6,22.5-21,39.3
		c2.1-2.2,4.6-4.6,5.1-7.4c2-10.6,7.8-18.6,13-27.1C136.1,354.2,137,352.6,137.9,350.9z M312.7,361.4c3.3-0.5,5.9-0.7,8.5-1.3
		c3.4-0.8,7.1-0.9,9.7-4.2c1-1.3,2.7-3.2-0.4-4.3C324.9,349.7,315.3,354.6,312.7,361.4z M319.7,349.8c5.7,0.4,11.1,0,15.7-3.9
		c1.4-1.2,2.3-3.1,2-5.2c-0.1-1.2-1.3-1-2.1-1.1C329.8,338.6,322.7,343.2,319.7,349.8z M191.8,200.6c9.4,1.4,19.1,7.3,28-2.1
		C210.4,199.1,201,197.7,191.8,200.6z M335.8,325.4c4.2,0.1,10.3,1,10.5-3.1c0.3-5.2,3.5-6,5.4-8.7c1-1.4,3.2-3,1.7-4.8
		c-1.3-1.6-3.3-0.3-4.8,0.7C342.8,313.3,342.2,322.1,335.8,325.4z M343,327.9c-7.3,0.1-12.4,2.8-16.4,11.2
		C333.8,336.5,341.4,338.5,343,327.9z M464.5,85c-4.5,11.3,0.3,24,11.3,28.6C467.1,105.7,465.1,96,464.5,85z M206.9,622.7
		c0.1-6.2,3.6-12.8-0.6-20.9C204.2,610.2,204.7,616.4,206.9,622.7z M361.4,472.3c2.7,2.7,6.2,2.7,9.3,3.5c1.8,0.4,4.1,0,4.5-2
		c0.6-2.7-2.2-2.7-3.6-3.1C368.2,469.9,364.6,469.6,361.4,472.3z"/>
</g>
</svg>
